# xmcd CD database file
#
# Track frame offsets:
#	150
#	16405
#	29415
#
# Disc length: 606 seconds
#
# Revision: 0
# Processed by: cddbd v1.4PL0 Copyright (c) Steve Scherf et al.
# Submitted via: Feurio! 1.63 - http://www.feurio.com
#
DISCID=1b025c03
DTITLE=Linda Feller - Könnt ich noch einmal Leben
DYEAR=1900
DGENRE=
TTITLE0=Könnt ich noch einmal Leben
TTITLE1=Du bist mein zweites Leben
TTITLE2=Könnt ich noch einmal Leben (Karaoke - Version)
EXTD=
EXTT0=
EXTT1=
EXTT2=
PLAYORDER=
